<svg id="Layer_1" data-name="Layer 1" xmlns="http://www.w3.org/2000/svg" xmlns:xlink="http://www.w3.org/1999/xlink" viewBox="0 0 159.04 78.61"><defs><style>.cls-1,.cls-10,.cls-11,.cls-2,.cls-3,.cls-4,.cls-5,.cls-6,.cls-7,.cls-8{fill:none;}.cls-1,.cls-11,.cls-2,.cls-3,.cls-4,.cls-5,.cls-6,.cls-7,.cls-8{stroke-miterlimit:10;stroke-width:3px;}.cls-1{stroke:url(#linear-gradient);}.cls-2{stroke:url(#linear-gradient-2);}.cls-3{stroke:url(#linear-gradient-3);}.cls-4{stroke:url(#linear-gradient-4);}.cls-5{stroke:url(#linear-gradient-5);}.cls-6{stroke:url(#linear-gradient-6);}.cls-7{stroke:url(#linear-gradient-7);}.cls-8{stroke:url(#linear-gradient-8);}.cls-9{fill:#231f20;}.cls-10{stroke:#231f20;}.cls-11{stroke:#040305;}</style><linearGradient id="linear-gradient" x1="500.03" y1="243.14" x2="504.36" y2="243.14" gradientTransform="matrix(1.18, 0, 0, 1.22, -88.38, -57.21)" gradientUnits="userSpaceOnUse"><stop offset="0" stop-color="#fff"/><stop offset="1"/></linearGradient><linearGradient id="linear-gradient-2" x1="504.34" y1="242.48" x2="510.42" y2="242.48" xlink:href="#linear-gradient"/><linearGradient id="linear-gradient-3" x1="501.52" y1="236.49" x2="510.42" y2="236.49" xlink:href="#linear-gradient"/><linearGradient id="linear-gradient-4" x1="488.08" y1="238.21" x2="501.55" y2="238.21" xlink:href="#linear-gradient"/><linearGradient id="linear-gradient-5" x1="488.08" y1="251.47" x2="508.95" y2="251.47" xlink:href="#linear-gradient"/><linearGradient id="linear-gradient-6" x1="508.86" y1="246.96" x2="541.71" y2="246.96" xlink:href="#linear-gradient"/><linearGradient id="linear-gradient-7" x1="489.48" y1="214.67" x2="541.71" y2="214.67" xlink:href="#linear-gradient"/><linearGradient id="linear-gradient-8" x1="406.15" y1="226.47" x2="489.73" y2="226.47" xlink:href="#linear-gradient"/></defs><path class="cls-1" d="M504.78,241.78c-1.84,0-3.32-1.17-3.32-2.61" transform="translate(-389.45 -182.52)"/><path class="cls-2" d="M510.15,237.57c0,2.33-2.41,4.22-5.39,4.21" transform="translate(-389.45 -182.52)"/><path class="cls-3" d="M501.45,230.75c4.82,0,8.71,3.07,8.7,6.84" transform="translate(-389.45 -182.52)"/><path class="cls-4" d="M487.39,241.78c0-6.1,6.32-11,14.11-11" transform="translate(-389.45 -182.52)"/><path class="cls-5" d="M510.17,259.63c-12.61,0-22.79-8-22.78-17.9" transform="translate(-389.45 -182.52)"/><path class="cls-6" d="M547,230.76c0,16-16.53,28.9-36.93,28.87" transform="translate(-389.45 -182.52)"/><path class="cls-7" d="M487.35,184c33,0,59.67,21,59.64,46.87" transform="translate(-389.45 -182.52)"/><path class="cls-8" d="M391,259.62c.06-41.86,43.3-75.67,96.7-75.6" transform="translate(-389.45 -182.52)"/><path class="cls-9" d="M504.78,241.78c-1.84,0-3.32-1.17-3.32-2.61" transform="translate(-389.45 -182.52)"/><path class="cls-9" d="M510.15,237.57c0,2.33-2.41,4.22-5.39,4.21" transform="translate(-389.45 -182.52)"/><path class="cls-9" d="M501.45,230.75c4.82,0,8.71,3.07,8.7,6.84" transform="translate(-389.45 -182.52)"/><path class="cls-9" d="M487.39,241.78c0-6.1,6.32-11,14.11-11" transform="translate(-389.45 -182.52)"/><path class="cls-9" d="M510.17,259.63c-12.61,0-22.79-8-22.78-17.9" transform="translate(-389.45 -182.52)"/><path class="cls-9" d="M547,230.76c0,16-16.53,28.9-36.93,28.87" transform="translate(-389.45 -182.52)"/><path class="cls-9" d="M487.35,184c33,0,59.67,21,59.64,46.87" transform="translate(-389.45 -182.52)"/><path class="cls-9" d="M391,259.62c.06-41.86,43.3-75.67,96.7-75.6" transform="translate(-389.45 -182.52)"/><path class="cls-10" d="M504.78,241.78c-1.84,0-3.32-1.17-3.32-2.61" transform="translate(-389.45 -182.52)"/><path class="cls-10" d="M510.15,237.57c0,2.33-2.41,4.22-5.39,4.21" transform="translate(-389.45 -182.52)"/><path class="cls-10" d="M501.45,230.75c4.82,0,8.71,3.07,8.7,6.84" transform="translate(-389.45 -182.52)"/><path class="cls-10" d="M487.39,241.78c0-6.1,6.32-11,14.11-11" transform="translate(-389.45 -182.52)"/><path class="cls-10" d="M510.17,259.63c-12.61,0-22.79-8-22.78-17.9" transform="translate(-389.45 -182.52)"/><path class="cls-10" d="M547,230.76c0,16-16.53,28.9-36.93,28.87" transform="translate(-389.45 -182.52)"/><path class="cls-10" d="M487.35,184c33,0,59.67,21,59.64,46.87" transform="translate(-389.45 -182.52)"/><path class="cls-10" d="M391,259.62c.06-41.86,43.3-75.67,96.7-75.6" transform="translate(-389.45 -182.52)"/><path class="cls-10" d="M504.78,241.78c-1.84,0-3.32-1.17-3.32-2.61" transform="translate(-389.45 -182.52)"/><path class="cls-10" d="M510.15,237.57c0,2.33-2.41,4.22-5.39,4.21" transform="translate(-389.45 -182.52)"/><path class="cls-10" d="M501.45,230.75c4.82,0,8.71,3.07,8.7,6.84" transform="translate(-389.45 -182.52)"/><path class="cls-10" d="M487.39,241.78c0-6.1,6.32-11,14.11-11" transform="translate(-389.45 -182.52)"/><path class="cls-10" d="M510.17,259.63c-12.61,0-22.79-8-22.78-17.9" transform="translate(-389.45 -182.52)"/><path class="cls-10" d="M547,230.76c0,16-16.53,28.9-36.93,28.87" transform="translate(-389.45 -182.52)"/><path class="cls-10" d="M487.35,184c33,0,59.67,21,59.64,46.87" transform="translate(-389.45 -182.52)"/><path class="cls-10" d="M391,259.62c.06-41.86,43.3-75.67,96.7-75.6" transform="translate(-389.45 -182.52)"/><path class="cls-10" d="M504.78,241.78c-1.84,0-3.32-1.17-3.32-2.61" transform="translate(-389.45 -182.52)"/><path class="cls-10" d="M510.15,237.57c0,2.33-2.41,4.22-5.39,4.21" transform="translate(-389.45 -182.52)"/><path class="cls-10" d="M501.45,230.75c4.82,0,8.71,3.07,8.7,6.84" transform="translate(-389.45 -182.52)"/><path class="cls-10" d="M487.39,241.78c0-6.1,6.32-11,14.11-11" transform="translate(-389.45 -182.52)"/><path class="cls-10" d="M510.17,259.63c-12.61,0-22.79-8-22.78-17.9" transform="translate(-389.45 -182.52)"/><path class="cls-10" d="M547,230.76c0,16-16.53,28.9-36.93,28.87" transform="translate(-389.45 -182.52)"/><path class="cls-10" d="M487.35,184c33,0,59.67,21,59.64,46.87" transform="translate(-389.45 -182.52)"/><path class="cls-10" d="M391,259.62c.06-41.86,43.3-75.67,96.7-75.6" transform="translate(-389.45 -182.52)"/><path class="cls-9" d="M504.78,241.78c-1.84,0-3.32-1.17-3.32-2.61" transform="translate(-389.45 -182.52)"/><path class="cls-9" d="M510.15,237.57c0,2.33-2.41,4.22-5.39,4.21" transform="translate(-389.45 -182.52)"/><path class="cls-9" d="M501.45,230.75c4.82,0,8.71,3.07,8.7,6.84" transform="translate(-389.45 -182.52)"/><path class="cls-9" d="M487.39,241.78c0-6.1,6.32-11,14.11-11" transform="translate(-389.45 -182.52)"/><path class="cls-9" d="M510.17,259.63c-12.61,0-22.79-8-22.78-17.9" transform="translate(-389.45 -182.52)"/><path class="cls-9" d="M547,230.76c0,16-16.53,28.9-36.93,28.87" transform="translate(-389.45 -182.52)"/><path class="cls-9" d="M487.35,184c33,0,59.67,21,59.64,46.87" transform="translate(-389.45 -182.52)"/><path class="cls-9" d="M391,259.62c.06-41.86,43.3-75.67,96.7-75.6" transform="translate(-389.45 -182.52)"/><path class="cls-9" d="M504.78,241.78c-1.84,0-3.32-1.17-3.32-2.61" transform="translate(-389.45 -182.52)"/><path class="cls-9" d="M510.15,237.57c0,2.33-2.41,4.22-5.39,4.21" transform="translate(-389.45 -182.52)"/><path class="cls-9" d="M501.45,230.75c4.82,0,8.71,3.07,8.7,6.84" transform="translate(-389.45 -182.52)"/><path class="cls-9" d="M487.39,241.78c0-6.1,6.32-11,14.11-11" transform="translate(-389.45 -182.52)"/><path class="cls-9" d="M510.17,259.63c-12.61,0-22.79-8-22.78-17.9" transform="translate(-389.45 -182.52)"/><path class="cls-9" d="M547,230.76c0,16-16.53,28.9-36.93,28.87" transform="translate(-389.45 -182.52)"/><path class="cls-9" d="M487.35,184c33,0,59.67,21,59.64,46.87" transform="translate(-389.45 -182.52)"/><path class="cls-9" d="M391,259.62c.06-41.86,43.3-75.67,96.7-75.6" transform="translate(-389.45 -182.52)"/><path class="cls-9" d="M504.78,241.78c-1.84,0-3.32-1.17-3.32-2.61" transform="translate(-389.45 -182.52)"/><path class="cls-9" d="M510.15,237.57c0,2.33-2.41,4.22-5.39,4.21" transform="translate(-389.45 -182.52)"/><path class="cls-9" d="M501.45,230.75c4.82,0,8.71,3.07,8.7,6.84" transform="translate(-389.45 -182.52)"/><path class="cls-9" d="M487.39,241.78c0-6.1,6.32-11,14.11-11" transform="translate(-389.45 -182.52)"/><path class="cls-9" d="M510.17,259.63c-12.61,0-22.79-8-22.78-17.9" transform="translate(-389.45 -182.52)"/><path class="cls-9" d="M547,230.76c0,16-16.53,28.9-36.93,28.87" transform="translate(-389.45 -182.52)"/><path class="cls-9" d="M487.35,184c33,0,59.67,21,59.64,46.87" transform="translate(-389.45 -182.52)"/><path class="cls-9" d="M391,259.62c.06-41.86,43.3-75.67,96.7-75.6" transform="translate(-389.45 -182.52)"/><path class="cls-9" d="M504.78,241.78c-1.84,0-3.32-1.17-3.32-2.61" transform="translate(-389.45 -182.52)"/><path class="cls-9" d="M510.15,237.57c0,2.33-2.41,4.22-5.39,4.21" transform="translate(-389.45 -182.52)"/><path class="cls-9" d="M501.45,230.75c4.82,0,8.71,3.07,8.7,6.84" transform="translate(-389.45 -182.52)"/><path class="cls-9" d="M487.39,241.78c0-6.1,6.32-11,14.11-11" transform="translate(-389.45 -182.52)"/><path class="cls-9" d="M510.17,259.63c-12.61,0-22.79-8-22.78-17.9" transform="translate(-389.45 -182.52)"/><path class="cls-9" d="M547,230.76c0,16-16.53,28.9-36.93,28.87" transform="translate(-389.45 -182.52)"/><path class="cls-9" d="M487.35,184c33,0,59.67,21,59.64,46.87" transform="translate(-389.45 -182.52)"/><path class="cls-9" d="M391,259.62c.06-41.86,43.3-75.67,96.7-75.6" transform="translate(-389.45 -182.52)"/><path class="cls-9" d="M504.78,241.78c-1.84,0-3.32-1.17-3.32-2.61" transform="translate(-389.45 -182.52)"/><path class="cls-9" d="M510.15,237.57c0,2.33-2.41,4.22-5.39,4.21" transform="translate(-389.45 -182.52)"/><path class="cls-9" d="M501.45,230.75c4.82,0,8.71,3.07,8.7,6.84" transform="translate(-389.45 -182.52)"/><path class="cls-9" d="M487.39,241.78c0-6.1,6.32-11,14.11-11" transform="translate(-389.45 -182.52)"/><path class="cls-9" d="M510.17,259.63c-12.61,0-22.79-8-22.78-17.9" transform="translate(-389.45 -182.52)"/><path class="cls-9" d="M547,230.76c0,16-16.53,28.9-36.93,28.87" transform="translate(-389.45 -182.52)"/><path class="cls-9" d="M487.35,184c33,0,59.67,21,59.64,46.87" transform="translate(-389.45 -182.52)"/><path class="cls-9" d="M391,259.62c.06-41.86,43.3-75.67,96.7-75.6" transform="translate(-389.45 -182.52)"/><path class="cls-10" d="M504.78,241.78c-1.84,0-3.32-1.17-3.32-2.61" transform="translate(-389.45 -182.52)"/><path class="cls-10" d="M510.15,237.57c0,2.33-2.41,4.22-5.39,4.21" transform="translate(-389.45 -182.52)"/><path class="cls-10" d="M501.45,230.75c4.82,0,8.71,3.07,8.7,6.84" transform="translate(-389.45 -182.52)"/><path class="cls-10" d="M487.39,241.78c0-6.1,6.32-11,14.11-11" transform="translate(-389.45 -182.52)"/><path class="cls-10" d="M510.17,259.63c-12.61,0-22.79-8-22.78-17.9" transform="translate(-389.45 -182.52)"/><path class="cls-10" d="M547,230.76c0,16-16.53,28.9-36.93,28.87" transform="translate(-389.45 -182.52)"/><path class="cls-10" d="M487.35,184c33,0,59.67,21,59.64,46.87" transform="translate(-389.45 -182.52)"/><path class="cls-10" d="M391,259.62c.06-41.86,43.3-75.67,96.7-75.6" transform="translate(-389.45 -182.52)"/><path class="cls-10" d="M504.78,241.78c-1.84,0-3.32-1.17-3.32-2.61" transform="translate(-389.45 -182.52)"/><path class="cls-10" d="M510.15,237.57c0,2.33-2.41,4.22-5.39,4.21" transform="translate(-389.45 -182.52)"/><path class="cls-10" d="M501.45,230.75c4.82,0,8.71,3.07,8.7,6.84" transform="translate(-389.45 -182.52)"/><path class="cls-10" d="M487.39,241.78c0-6.1,6.32-11,14.11-11" transform="translate(-389.45 -182.52)"/><path class="cls-10" d="M510.17,259.63c-12.61,0-22.79-8-22.78-17.9" transform="translate(-389.45 -182.52)"/><path class="cls-10" d="M547,230.76c0,16-16.53,28.9-36.93,28.87" transform="translate(-389.45 -182.52)"/><path class="cls-10" d="M487.35,184c33,0,59.67,21,59.64,46.87" transform="translate(-389.45 -182.52)"/><path class="cls-10" d="M391,259.62c.06-41.86,43.3-75.67,96.7-75.6" transform="translate(-389.45 -182.52)"/><path class="cls-10" d="M504.78,241.78c-1.84,0-3.32-1.17-3.32-2.61" transform="translate(-389.45 -182.52)"/><path class="cls-10" d="M510.15,237.57c0,2.33-2.41,4.22-5.39,4.21" transform="translate(-389.45 -182.52)"/><path class="cls-10" d="M501.45,230.75c4.82,0,8.71,3.07,8.7,6.84" transform="translate(-389.45 -182.52)"/><path class="cls-10" d="M487.39,241.78c0-6.1,6.32-11,14.11-11" transform="translate(-389.45 -182.52)"/><path class="cls-10" d="M510.17,259.63c-12.61,0-22.79-8-22.78-17.9" transform="translate(-389.45 -182.52)"/><path class="cls-10" d="M547,230.76c0,16-16.53,28.9-36.93,28.87" transform="translate(-389.45 -182.52)"/><path class="cls-10" d="M487.35,184c33,0,59.67,21,59.64,46.87" transform="translate(-389.45 -182.52)"/><path class="cls-10" d="M391,259.62c.06-41.86,43.3-75.67,96.7-75.6" transform="translate(-389.45 -182.52)"/><path class="cls-11" d="M504.78,241.78c-1.84,0-3.32-1.17-3.32-2.61" transform="translate(-389.45 -182.52)"/><path class="cls-11" d="M510.15,237.57c0,2.33-2.41,4.22-5.39,4.21" transform="translate(-389.45 -182.52)"/><path class="cls-11" d="M501.45,230.75c4.82,0,8.71,3.07,8.7,6.84" transform="translate(-389.45 -182.52)"/><path class="cls-11" d="M487.39,241.78c0-6.1,6.32-11,14.11-11" transform="translate(-389.45 -182.52)"/><path class="cls-11" d="M510.17,259.63c-12.61,0-22.79-8-22.78-17.9" transform="translate(-389.45 -182.52)"/><path class="cls-11" d="M547,230.76c0,16-16.53,28.9-36.93,28.87" transform="translate(-389.45 -182.52)"/><path class="cls-11" d="M487.35,184c33,0,59.67,21,59.64,46.87" transform="translate(-389.45 -182.52)"/><path class="cls-11" d="M391,259.62c.06-41.86,43.3-75.67,96.7-75.6" transform="translate(-389.45 -182.52)"/></svg>